<?xml version="1.0" encoding="utf-8"?>
<!-- Generator: Adobe Illustrator 16.0.0, SVG Export Plug-In . SVG Version: 6.00 Build 0)  -->
<!DOCTYPE svg PUBLIC "-//W3C//DTD SVG 1.1//EN" "http://www.w3.org/Graphics/SVG/1.1/DTD/svg11.dtd">
<svg version="1.1" id="Layer_1" xmlns="http://www.w3.org/2000/svg" xmlns:xlink="http://www.w3.org/1999/xlink" x="0px" y="0px"
	 width="16px" height="32px" viewBox="0 0 16 32" enable-background="new 0 0 16 32" xml:space="preserve">
<g>
	<path fill="#FFFFFF" d="M4.799,12.802c-0.879,0-1.603,0.719-1.603,1.596C3.196,15.281,3.92,16,4.799,16
		c0.882,0,1.599-0.719,1.599-1.603C6.397,13.52,5.681,12.802,4.799,12.802L4.799,12.802z M0,0.001v1.602h1.603L4.479,7.68L3.358,9.6
		c-0.078,0.238-0.16,0.562-0.16,0.797c0,0.885,0.723,1.604,1.602,1.604h9.6v-1.604H5.121c-0.083,0-0.16-0.078-0.16-0.159v-0.076
		l0.72-1.36h5.922c0.635,0,1.116-0.32,1.358-0.799l2.878-5.2C16,2.642,16,2.56,16,2.398c0-0.477-0.321-0.797-0.802-0.797H3.356
		L2.64,0L0,0.001L0,0.001z M12.799,12.802c-0.878,0-1.601,0.719-1.601,1.596c0,0.884,0.723,1.603,1.601,1.603
		c0.882,0,1.601-0.719,1.601-1.603C14.397,13.52,13.681,12.802,12.799,12.802L12.799,12.802z"/>
</g>
<path fill="#FFFFFF" d="M8,32l-1.122-1.215C2.719,26.785,0,24.088,0,20.779C0,18.089,1.922,16,4.397,16
	C5.762,16,7.121,16.697,8,17.826C8.879,16.697,10.238,16,11.602,16C14.078,16,16,18.089,16,20.779c0,3.309-2.719,6.006-6.879,10.006
	L8,32z M8,32"/>
</svg>
