<?xml version="1.0" encoding="utf-8"?>
<!-- Generator: Adobe Illustrator 16.0.0, SVG Export Plug-In . SVG Version: 6.00 Build 0)  -->
<!DOCTYPE svg PUBLIC "-//W3C//DTD SVG 1.1//EN" "http://www.w3.org/Graphics/SVG/1.1/DTD/svg11.dtd">
<svg version="1.1" id="Layer_1" xmlns="http://www.w3.org/2000/svg" xmlns:xlink="http://www.w3.org/1999/xlink" x="0px" y="0px"
	 width="50.002px" height="125px" viewBox="0 0 50.002 125" enable-background="new 0 0 50.002 125" xml:space="preserve">
<g>
	<path fill="#2E3256" d="M12.5,0C5.596,0,0,5.598,0,12.501C0,19.405,5.596,25,12.5,25C19.404,25,25,19.405,25,12.501
		C25,5.598,19.404,0,12.5,0z M15.178,12.505h-1.752c0,2.798,0,6.244,0,6.244h-2.595c0,0,0-3.411,0-6.244H9.595v-2.207h1.235V8.871
		c0-1.023,0.484-2.622,2.621-2.622l1.92,0.008v2.144c0,0-1.168,0-1.395,0s-0.551,0.112-0.551,0.601v1.297h1.979L15.178,12.505z"/>
	<path fill="#2E3256" d="M12.5,25C5.596,25,0,30.598,0,37.501C0,44.405,5.596,50,12.5,50C19.404,50,25,44.405,25,37.501
		C25,30.598,19.404,25,12.5,25z M17.471,34.952c0.006,0.11,0.006,0.221,0.006,0.332c0,3.388-2.578,7.297-7.296,7.297
		c-1.448,0-2.795-0.423-3.931-1.151c0.202,0.022,0.405,0.035,0.612,0.035c1.202,0,2.308-0.409,3.185-1.098
		c-1.121-0.019-2.068-0.76-2.396-1.779c0.158,0.028,0.319,0.046,0.483,0.046c0.234,0,0.46-0.032,0.677-0.09
		c-1.172-0.237-2.059-1.274-2.059-2.516c0-0.009,0-0.021,0-0.031c0.347,0.19,0.741,0.304,1.164,0.32
		c-0.691-0.459-1.143-1.243-1.143-2.136c0-0.468,0.127-0.909,0.348-1.289c1.265,1.552,3.154,2.573,5.287,2.68
		c-0.044-0.188-0.069-0.383-0.069-0.583c0-1.417,1.148-2.565,2.566-2.565c0.736,0,1.404,0.312,1.873,0.808
		c0.584-0.112,1.133-0.326,1.627-0.62c-0.191,0.598-0.6,1.101-1.127,1.418c0.52-0.06,1.014-0.199,1.471-0.402
		C18.406,34.139,17.971,34.59,17.471,34.952z"/>
	<g>
		<path fill="#2E3256" d="M13.25,61.582v-0.026c-0.002,0.009-0.01,0.017-0.018,0.026H13.25z"/>
		<path fill="#2E3256" d="M12.501,50C5.599,50,0,55.598,0,62.5C0,69.404,5.599,75,12.501,75c6.905,0,12.5-5.596,12.5-12.5
			C25.002,55.598,19.406,50,12.501,50z M9.089,68.476H6.412v-8.062h2.678V68.476z M7.749,59.312H7.733
			c-0.899,0-1.481-0.62-1.481-1.393c0-0.792,0.602-1.393,1.517-1.393c0.918,0,1.479,0.601,1.498,1.393
			C9.266,58.692,8.686,59.312,7.749,59.312z M18.752,68.476h-2.678v-4.312c0-1.085-0.389-1.823-1.359-1.823
			c-0.738,0-1.18,0.5-1.375,0.98c-0.07,0.17-0.09,0.41-0.09,0.653v4.502h-2.677c0,0,0.034-7.307,0-8.062h2.677v1.142
			c0.357-0.551,0.994-1.33,2.418-1.33c1.764,0,3.084,1.149,3.084,3.626V68.476z"/>
	</g>
	<g>
		<path fill="#2E3256" d="M9.963,81.851c-0.994-0.029-1.66,0.969-1.489,2.271c0.174,1.306,1.116,2.216,2.11,2.246
			c0.99,0.027,1.562-0.81,1.392-2.114C11.805,82.951,10.954,81.88,9.963,81.851z"/>
		<path fill="#2E3256" d="M10.379,89.036c-1.479-0.016-2.735,0.933-2.735,2.037c0,1.126,1.069,2.062,2.55,2.062
			c2.082,0,2.804-0.878,2.804-2.005c0-0.136-0.016-0.27-0.047-0.396c-0.161-0.637-0.808-0.986-1.612-1.544
			C11.045,89.097,10.723,89.04,10.379,89.036z"/>
		<path fill="#2E3256" d="M12.5,74.999C5.597,74.999,0,80.598,0,87.501S5.597,99.999,12.5,99.999
			c6.907,0,12.499-5.595,12.499-12.498S19.406,74.999,12.5,74.999z M13.455,84.197c0,0.815-0.451,1.474-1.088,1.969
			c-0.621,0.489-0.741,0.69-0.741,1.103c0,0.354,0.745,0.879,1.089,1.136c1.186,0.893,1.428,1.452,1.428,2.569
			c0,1.393-1.501,2.775-3.94,2.775c-2.142,0-3.949-0.869-3.949-2.262c0-1.412,1.501-2.888,3.641-2.888
			c0.233,0,0.447-0.005,0.668-0.005c-0.293-0.283-0.529-0.529-0.529-0.962c0-0.254,0.082-0.499,0.195-0.716
			c-0.116,0.006-0.233,0.012-0.356,0.012c-1.761,0-2.782-1.232-2.782-2.781c0-1.518,1.559-2.898,3.429-2.898
			c0.963,0,3.681,0,3.681,0l-0.822,0.866h-0.965C13.092,82.505,13.455,83.311,13.455,84.197z M18.746,83.97h-1.701v1.701h-0.848
			V83.97h-1.701v-0.848h1.701v-1.701h0.848v1.701h1.701V83.97z"/>
	</g>
	<path fill="#2E3256" d="M12.5,100C5.597,100,0,105.598,0,112.5C0,119.404,5.597,125,12.5,125c6.903,0,12.499-5.596,12.499-12.5
		C24.998,105.598,19.402,100,12.5,100z M13.789,115.283c-0.775,0-1.504-0.418-1.753-0.895c0,0-0.416,1.654-0.505,1.973
		c-0.312,1.131-1.227,2.258-1.296,2.352c-0.051,0.062-0.161,0.043-0.171-0.041c-0.019-0.145-0.252-1.568,0.022-2.729
		c0.136-0.584,0.921-3.912,0.921-3.912s-0.228-0.459-0.228-1.135c0-1.064,0.615-1.859,1.386-1.859c0.652,0,0.967,0.488,0.967,1.076
		c0,0.656-0.418,1.639-0.633,2.549c-0.18,0.764,0.382,1.383,1.133,1.383c1.359,0,2.277-1.748,2.277-3.818
		c0-1.574-1.061-2.752-2.988-2.752c-2.18,0-3.537,1.625-3.537,3.441c0,0.625,0.187,1.066,0.474,1.404
		c0.133,0.158,0.151,0.221,0.104,0.4c-0.035,0.135-0.114,0.453-0.146,0.578c-0.051,0.182-0.195,0.248-0.359,0.18
		c-1.003-0.408-1.474-1.508-1.474-2.744c0-2.039,1.723-4.484,5.132-4.484c2.742,0,4.547,1.984,4.547,4.115
		C17.664,113.18,16.1,115.283,13.789,115.283z"/>
	<rect x="0" fill="none" width="25" height="25"/>
	<rect x="0" y="25" fill="none" width="25" height="25"/>
	<rect x="0" y="50" fill="none" width="25" height="25"/>
	<rect x="0" y="75" fill="none" width="25" height="25"/>
	<rect x="0" y="100" fill="none" width="25" height="25"/>
</g>
<path fill="#EF412D" d="M37.5,0C30.596,0,25,5.598,25,12.501C25,19.405,30.596,25,37.5,25S50,19.405,50,12.501
	C50,5.598,44.404,0,37.5,0z M40.178,12.505h-1.752c0,2.798,0,6.244,0,6.244H35.83c0,0,0-3.411,0-6.244h-1.235v-2.207h1.235V8.871
	c0-1.023,0.484-2.622,2.621-2.622l1.92,0.008v2.144c0,0-1.168,0-1.395,0s-0.551,0.112-0.551,0.601v1.297h1.979L40.178,12.505z"/>
<path fill="#EF412D" d="M37.499,25C30.596,25,25,30.598,25,37.501C25,44.405,30.596,50,37.499,50C44.404,50,50,44.405,50,37.501
	C50,30.598,44.404,25,37.499,25z M42.471,34.952c0.006,0.11,0.006,0.221,0.006,0.332c0,3.388-2.578,7.297-7.297,7.297
	c-1.448,0-2.795-0.423-3.931-1.151c0.202,0.022,0.405,0.035,0.612,0.035c1.202,0,2.308-0.409,3.185-1.098
	c-1.121-0.019-2.068-0.76-2.396-1.779c0.158,0.028,0.319,0.046,0.483,0.046c0.234,0,0.46-0.032,0.677-0.09
	c-1.172-0.237-2.059-1.274-2.059-2.516c0-0.009,0-0.021,0-0.031c0.347,0.19,0.741,0.304,1.164,0.32
	c-0.691-0.459-1.143-1.243-1.143-2.136c0-0.468,0.127-0.909,0.348-1.289c1.265,1.552,3.154,2.573,5.287,2.68
	c-0.044-0.188-0.069-0.383-0.069-0.583c0-1.417,1.148-2.565,2.566-2.565c0.736,0,1.404,0.312,1.873,0.808
	c0.584-0.112,1.133-0.326,1.627-0.62c-0.191,0.598-0.6,1.101-1.127,1.418c0.52-0.06,1.014-0.199,1.471-0.402
	C43.406,34.139,42.971,34.59,42.471,34.952z"/>
<g>
	<path fill="#EF412D" d="M38.25,61.582v-0.026c-0.002,0.009-0.01,0.017-0.018,0.026H38.25z"/>
	<path fill="#EF412D" d="M37.501,50C30.599,50,25,55.598,25,62.5C25,69.404,30.599,75,37.501,75c6.905,0,12.501-5.596,12.501-12.5
		C50.002,55.598,44.406,50,37.501,50z M34.089,68.476h-2.678v-8.062h2.678V68.476z M32.748,59.312h-0.016
		c-0.899,0-1.481-0.62-1.481-1.393c0-0.792,0.602-1.393,1.517-1.393c0.918,0,1.479,0.601,1.498,1.393
		C34.266,58.692,33.686,59.312,32.748,59.312z M43.752,68.476h-2.678v-4.312c0-1.085-0.389-1.823-1.359-1.823
		c-0.738,0-1.18,0.5-1.375,0.98c-0.07,0.17-0.09,0.41-0.09,0.653v4.502h-2.678c0,0,0.034-7.307,0-8.062h2.678v1.142
		c0.357-0.551,0.994-1.33,2.418-1.33c1.764,0,3.084,1.149,3.084,3.626V68.476z"/>
</g>
<g>
	<path fill="#EF412D" d="M34.963,81.851c-0.994-0.029-1.66,0.969-1.489,2.271c0.174,1.306,1.116,2.216,2.11,2.246
		c0.99,0.027,1.562-0.81,1.392-2.114C36.805,82.951,35.953,81.88,34.963,81.851z"/>
	<path fill="#EF412D" d="M35.379,89.036c-1.479-0.016-2.735,0.933-2.735,2.037c0,1.126,1.069,2.062,2.55,2.062
		c2.082,0,2.804-0.878,2.804-2.005c0-0.136-0.016-0.27-0.047-0.396c-0.161-0.637-0.808-0.986-1.612-1.544
		C36.045,89.097,35.723,89.04,35.379,89.036z"/>
	<path fill="#EF412D" d="M37.499,74.999C30.597,74.999,25,80.598,25,87.501s5.597,12.498,12.499,12.498
		c6.907,0,12.499-5.595,12.499-12.498S44.406,74.999,37.499,74.999z M38.455,84.197c0,0.815-0.451,1.474-1.089,1.969
		c-0.621,0.489-0.741,0.69-0.741,1.103c0,0.354,0.745,0.879,1.089,1.136c1.187,0.893,1.429,1.452,1.429,2.569
		c0,1.393-1.502,2.775-3.94,2.775c-2.142,0-3.949-0.869-3.949-2.262c0-1.412,1.501-2.888,3.641-2.888
		c0.233,0,0.447-0.005,0.668-0.005c-0.293-0.283-0.529-0.529-0.529-0.962c0-0.254,0.082-0.499,0.195-0.716
		c-0.116,0.006-0.233,0.012-0.356,0.012c-1.761,0-2.782-1.232-2.782-2.781c0-1.518,1.559-2.898,3.429-2.898c0.963,0,3.682,0,3.682,0
		l-0.822,0.866h-0.966C38.092,82.505,38.455,83.311,38.455,84.197z M43.746,83.97h-1.701v1.701h-0.848V83.97h-1.701v-0.848h1.701
		v-1.701h0.848v1.701h1.701V83.97z"/>
</g>
<path fill="#EF412D" d="M37.499,100C30.597,100,25,105.598,25,112.5c0,6.904,5.597,12.5,12.499,12.5
	c6.903,0,12.499-5.596,12.499-12.5C49.998,105.598,44.402,100,37.499,100z M38.789,115.283c-0.775,0-1.505-0.418-1.754-0.895
	c0,0-0.416,1.654-0.505,1.973c-0.312,1.131-1.227,2.258-1.296,2.352c-0.051,0.062-0.161,0.043-0.171-0.041
	c-0.019-0.145-0.252-1.568,0.022-2.729c0.136-0.584,0.921-3.912,0.921-3.912s-0.228-0.459-0.228-1.135
	c0-1.064,0.615-1.859,1.386-1.859c0.652,0,0.968,0.488,0.968,1.076c0,0.656-0.419,1.639-0.634,2.549
	c-0.18,0.764,0.382,1.383,1.134,1.383c1.359,0,2.277-1.748,2.277-3.818c0-1.574-1.061-2.752-2.988-2.752
	c-2.18,0-3.537,1.625-3.537,3.441c0,0.625,0.187,1.066,0.474,1.404c0.133,0.158,0.151,0.221,0.104,0.4
	c-0.035,0.135-0.114,0.453-0.146,0.578c-0.051,0.182-0.195,0.248-0.359,0.18c-1.003-0.408-1.474-1.508-1.474-2.744
	c0-2.039,1.723-4.484,5.133-4.484c2.742,0,4.547,1.984,4.547,4.115C42.664,113.18,41.1,115.283,38.789,115.283z"/>
<rect x="25" fill="none" width="25" height="25"/>
<rect x="25" y="25" fill="none" width="25" height="25"/>
<rect x="25" y="50" fill="none" width="25" height="25"/>
<rect x="25" y="75" fill="none" width="25" height="25"/>
<rect x="25" y="100" fill="none" width="25" height="25"/>
</svg>
